<?xml version="1.0" encoding="UTF-8"?>
<svg xmlns="http://www.w3.org/2000/svg" xmlns:xlink="http://www.w3.org/1999/xlink" width="18px" height="18px" viewBox="0 0 18 18" version="1.1">
    <g id="surface1">
        <path style=" stroke:#FFFFFF;fill-rule:nonzero;fill:#FFFFFF;fill-opacity:1;" d="M 14.925781 15.730469 L 9.992188 10.800781 C 9.617188 11.125 9.179688 11.378906 8.679688 11.558594 C 8.179688 11.742188 7.648438 11.832031 7.085938 11.832031 C 5.738281 11.832031 4.59375 11.363281 3.65625 10.425781 C 2.71875 9.488281 2.25 8.355469 2.25 7.03125 C 2.25 5.707031 2.71875 4.574219 3.65625 3.636719 C 4.59375 2.699219 5.730469 2.230469 7.070312 2.230469 C 8.394531 2.230469 9.523438 2.699219 10.453125 3.636719 C 11.382812 4.574219 11.851562 5.707031 11.851562 7.03125 C 11.851562 7.570312 11.761719 8.085938 11.585938 8.585938 C 11.414062 9.085938 11.148438 9.554688 10.800781 9.992188 L 15.75 14.90625 Z M 7.070312 10.707031 C 8.082031 10.707031 8.945312 10.347656 9.65625 9.628906 C 10.367188 8.910156 10.726562 8.042969 10.726562 7.03125 C 10.726562 6.019531 10.367188 5.152344 9.65625 4.433594 C 8.945312 3.714844 8.082031 3.355469 7.070312 3.355469 C 6.042969 3.355469 5.171875 3.714844 4.453125 4.433594 C 3.734375 5.152344 3.375 6.019531 3.375 7.03125 C 3.375 8.042969 3.734375 8.910156 4.453125 9.628906 C 5.171875 10.347656 6.042969 10.707031 7.070312 10.707031 Z M 7.070312 10.707031 "/>
    </g>
</svg>
